<?xml version="1.0" encoding="utf-8" standalone="no"?>
<!DOCTYPE svg PUBLIC "-//W3C//DTD SVG 1.1//EN"
  "http://www.w3.org/Graphics/SVG/1.1/DTD/svg11.dtd">
<!-- Created with matplotlib (https://matplotlib.org/) -->
<svg height="432pt" version="1.1" viewBox="0 0 1440 432" width="1440pt" xmlns="http://www.w3.org/2000/svg" xmlns:xlink="http://www.w3.org/1999/xlink">
 <defs>
  <style type="text/css">
*{stroke-linecap:butt;stroke-linejoin:round;}
  </style>
 </defs>
 <g id="figure_1">
  <g id="patch_1">
   <path d="M 0 432 
L 1440 432 
L 1440 0 
L 0 0 
z
" style="fill:#ffffff;"/>
  </g>
  <g id="axes_1">
   <g id="patch_2">
    <path d="M 121.523122 284.406801 
L 585.101919 284.406801 
L 585.101919 52.656 
L 121.523122 52.656 
z
" style="fill:#ffffff;"/>
   </g>
   <g id="patch_3">
    <path clip-path="url(#p895b1fdedc)" d="M 130.794698 123400.022189 
L 149.33785 123400.022189 
L 149.33785 248.014185 
L 130.794698 248.014185 
z
" style="fill:#3274a1;"/>
   </g>
   <g id="patch_4">
    <path clip-path="url(#p895b1fdedc)" d="M 223.510457 123400.022189 
L 242.053609 123400.022189 
L 242.053609 265.264414 
L 223.510457 265.264414 
z
" style="fill:#3274a1;"/>
   </g>
   <g id="patch_5">
    <path clip-path="url(#p895b1fdedc)" d="M 316.226217 123400.022189 
L 334.769369 123400.022189 
L 334.769369 273.872674 
L 316.226217 273.872674 
z
" style="fill:#3274a1;"/>
   </g>
   <g id="patch_6">
    <path clip-path="url(#p895b1fdedc)" d="M 408.941976 123400.022189 
L 427.485128 123400.022189 
L 427.485128 242.061327 
L 408.941976 242.061327 
z
" style="fill:#3274a1;"/>
   </g>
   <g id="patch_7">
    <path clip-path="url(#p895b1fdedc)" d="M 501.657736 123400.022189 
L 520.200888 123400.022189 
L 520.200888 255.109097 
L 501.657736 255.109097 
z
" style="fill:#3274a1;"/>
   </g>
   <g id="patch_8">
    <path clip-path="url(#p895b1fdedc)" d="M 149.33785 123400.022189 
L 167.881002 123400.022189 
L 167.881002 202.624957 
L 149.33785 202.624957 
z
" style="fill:#e1812c;"/>
   </g>
   <g id="patch_9">
    <path clip-path="url(#p895b1fdedc)" d="M 242.053609 123400.022189 
L 260.596761 123400.022189 
L 260.596761 216.249446 
L 242.053609 216.249446 
z
" style="fill:#e1812c;"/>
   </g>
   <g id="patch_10">
    <path clip-path="url(#p895b1fdedc)" d="M 334.769369 123400.022189 
L 353.312521 123400.022189 
L 353.312521 263.735129 
L 334.769369 263.735129 
z
" style="fill:#e1812c;"/>
   </g>
   <g id="patch_11">
    <path clip-path="url(#p895b1fdedc)" d="M 427.485128 123400.022189 
L 446.02828 123400.022189 
L 446.02828 235.364839 
L 427.485128 235.364839 
z
" style="fill:#e1812c;"/>
   </g>
   <g id="patch_12">
    <path clip-path="url(#p895b1fdedc)" d="M 520.200888 123400.022189 
L 538.74404 123400.022189 
L 538.74404 240.207257 
L 520.200888 240.207257 
z
" style="fill:#e1812c;"/>
   </g>
   <g id="patch_13">
    <path clip-path="url(#p895b1fdedc)" d="M 167.881002 123400.022189 
L 186.424154 123400.022189 
L 186.424154 184.014526 
L 167.881002 184.014526 
z
" style="fill:#3a923a;"/>
   </g>
   <g id="patch_14">
    <path clip-path="url(#p895b1fdedc)" d="M 260.596761 123400.022189 
L 279.139913 123400.022189 
L 279.139913 63.190127 
L 260.596761 63.190127 
z
" style="fill:#3a923a;"/>
   </g>
   <g id="patch_15">
    <path clip-path="url(#p895b1fdedc)" d="M 353.312521 123400.022189 
L 371.855672 123400.022189 
L 371.855672 143.32561 
L 353.312521 143.32561 
z
" style="fill:#3a923a;"/>
   </g>
   <g id="patch_16">
    <path clip-path="url(#p895b1fdedc)" d="M 446.02828 123400.022189 
L 464.571432 123400.022189 
L 464.571432 175.539029 
L 446.02828 175.539029 
z
" style="fill:#3a923a;"/>
   </g>
   <g id="patch_17">
    <path clip-path="url(#p895b1fdedc)" d="M 538.74404 123400.022189 
L 557.287191 123400.022189 
L 557.287191 160.607464 
L 538.74404 160.607464 
z
" style="fill:#3a923a;"/>
   </g>
   <g id="patch_18">
    <path clip-path="url(#p895b1fdedc)" d="M 186.424154 123400.022189 
L 204.967305 123400.022189 
L 204.967305 99.705885 
L 186.424154 99.705885 
z
" style="fill:#c03d3e;"/>
   </g>
   <g id="patch_19">
    <path clip-path="url(#p895b1fdedc)" d="z
" style="fill:#c03d3e;"/>
   </g>
   <g id="patch_20">
    <path clip-path="url(#p895b1fdedc)" d="z
" style="fill:#c03d3e;"/>
   </g>
   <g id="patch_21">
    <path clip-path="url(#p895b1fdedc)" d="z
" style="fill:#c03d3e;"/>
   </g>
   <g id="patch_22">
    <path clip-path="url(#p895b1fdedc)" d="z
" style="fill:#c03d3e;"/>
   </g>
   <g id="matplotlib.axis_1">
    <g id="xtick_1">
     <g id="line2d_1">
      <defs>
       <path d="M 0 0 
L 0 9 
" id="m58131af368" style="stroke:#000000;stroke-width:1.875;"/>
      </defs>
      <g>
       <use style="stroke:#000000;stroke-width:1.875;" x="167.881002" xlink:href="#m58131af368" y="284.406801"/>
      </g>
     </g>
     <g id="text_1">
      <!-- Unet -->
      <defs>
       <path d="M 8.6875 72.90625 
L 18.609375 72.90625 
L 18.609375 28.609375 
Q 18.609375 16.890625 22.84375 11.734375 
Q 27.09375 6.59375 36.625 6.59375 
Q 46.09375 6.59375 50.34375 11.734375 
Q 54.59375 16.890625 54.59375 28.609375 
L 54.59375 72.90625 
L 64.5 72.90625 
L 64.5 27.390625 
Q 64.5 13.140625 57.4375 5.859375 
Q 50.390625 -1.421875 36.625 -1.421875 
Q 22.796875 -1.421875 15.734375 5.859375 
Q 8.6875 13.140625 8.6875 27.390625 
z
" id="DejaVuSans-85"/>
       <path d="M 54.890625 33.015625 
L 54.890625 0 
L 45.90625 0 
L 45.90625 32.71875 
Q 45.90625 40.484375 42.875 44.328125 
Q 39.84375 48.1875 33.796875 48.1875 
Q 26.515625 48.1875 22.3125 43.546875 
Q 18.109375 38.921875 18.109375 30.90625 
L 18.109375 0 
L 9.078125 0 
L 9.078125 54.6875 
L 18.109375 54.6875 
L 18.109375 46.1875 
Q 21.34375 51.125 25.703125 53.5625 
Q 30.078125 56 35.796875 56 
Q 45.21875 56 50.046875 50.171875 
Q 54.890625 44.34375 54.890625 33.015625 
z
" id="DejaVuSans-110"/>
       <path d="M 56.203125 29.59375 
L 56.203125 25.203125 
L 14.890625 25.203125 
Q 15.484375 15.921875 20.484375 11.0625 
Q 25.484375 6.203125 34.421875 6.203125 
Q 39.59375 6.203125 44.453125 7.46875 
Q 49.3125 8.734375 54.109375 11.28125 
L 54.109375 2.78125 
Q 49.265625 0.734375 44.1875 -0.34375 
Q 39.109375 -1.421875 33.890625 -1.421875 
Q 20.796875 -1.421875 13.15625 6.1875 
Q 5.515625 13.8125 5.515625 26.8125 
Q 5.515625 40.234375 12.765625 48.109375 
Q 20.015625 56 32.328125 56 
Q 43.359375 56 49.78125 48.890625 
Q 56.203125 41.796875 56.203125 29.59375 
z
M 47.21875 32.234375 
Q 47.125 39.59375 43.09375 43.984375 
Q 39.0625 48.390625 32.421875 48.390625 
Q 24.90625 48.390625 20.390625 44.140625 
Q 15.875 39.890625 15.1875 32.171875 
z
" id="DejaVuSans-101"/>
       <path d="M 18.3125 70.21875 
L 18.3125 54.6875 
L 36.8125 54.6875 
L 36.8125 47.703125 
L 18.3125 47.703125 
L 18.3125 18.015625 
Q 18.3125 11.328125 20.140625 9.421875 
Q 21.96875 7.515625 27.59375 7.515625 
L 36.8125 7.515625 
L 36.8125 0 
L 27.59375 0 
Q 17.1875 0 13.234375 3.875 
Q 9.28125 7.765625 9.28125 18.015625 
L 9.28125 47.703125 
L 2.6875 47.703125 
L 2.6875 54.6875 
L 9.28125 54.6875 
L 9.28125 70.21875 
z
" id="DejaVuSans-116"/>
      </defs>
      <g transform="translate(144.306194 332.148685)rotate(-20)scale(0.231 -0.231)">
       <use xlink:href="#DejaVuSans-85"/>
       <use x="73.193359" xlink:href="#DejaVuSans-110"/>
       <use x="136.572266" xlink:href="#DejaVuSans-101"/>
       <use x="198.095703" xlink:href="#DejaVuSans-116"/>
      </g>
     </g>
    </g>
    <g id="xtick_2">
     <g id="line2d_2">
      <g>
       <use style="stroke:#000000;stroke-width:1.875;" x="260.596761" xlink:href="#m58131af368" y="284.406801"/>
      </g>
     </g>
     <g id="text_2">
      <!-- Meshnet_large -->
      <defs>
       <path d="M 9.8125 72.90625 
L 24.515625 72.90625 
L 43.109375 23.296875 
L 61.8125 72.90625 
L 76.515625 72.90625 
L 76.515625 0 
L 66.890625 0 
L 66.890625 64.015625 
L 48.09375 14.015625 
L 38.1875 14.015625 
L 19.390625 64.015625 
L 19.390625 0 
L 9.8125 0 
z
" id="DejaVuSans-77"/>
       <path d="M 44.28125 53.078125 
L 44.28125 44.578125 
Q 40.484375 46.53125 36.375 47.5 
Q 32.28125 48.484375 27.875 48.484375 
Q 21.1875 48.484375 17.84375 46.4375 
Q 14.5 44.390625 14.5 40.28125 
Q 14.5 37.15625 16.890625 35.375 
Q 19.28125 33.59375 26.515625 31.984375 
L 29.59375 31.296875 
Q 39.15625 29.25 43.1875 25.515625 
Q 47.21875 21.78125 47.21875 15.09375 
Q 47.21875 7.46875 41.1875 3.015625 
Q 35.15625 -1.421875 24.609375 -1.421875 
Q 20.21875 -1.421875 15.453125 -0.5625 
Q 10.6875 0.296875 5.421875 2 
L 5.421875 11.28125 
Q 10.40625 8.6875 15.234375 7.390625 
Q 20.0625 6.109375 24.8125 6.109375 
Q 31.15625 6.109375 34.5625 8.28125 
Q 37.984375 10.453125 37.984375 14.40625 
Q 37.984375 18.0625 35.515625 20.015625 
Q 33.0625 21.96875 24.703125 23.78125 
L 21.578125 24.515625 
Q 13.234375 26.265625 9.515625 29.90625 
Q 5.8125 33.546875 5.8125 39.890625 
Q 5.8125 47.609375 11.28125 51.796875 
Q 16.75 56 26.8125 56 
Q 31.78125 56 36.171875 55.265625 
Q 40.578125 54.546875 44.28125 53.078125 
z
" id="DejaVuSans-115"/>
       <path d="M 54.890625 33.015625 
L 54.890625 0 
L 45.90625 0 
L 45.90625 32.71875 
Q 45.90625 40.484375 42.875 44.328125 
Q 39.84375 48.1875 33.796875 48.1875 
Q 26.515625 48.1875 22.3125 43.546875 
Q 18.109375 38.921875 18.109375 30.90625 
L 18.109375 0 
L 9.078125 0 
L 9.078125 75.984375 
L 18.109375 75.984375 
L 18.109375 46.1875 
Q 21.34375 51.125 25.703125 53.5625 
Q 30.078125 56 35.796875 56 
Q 45.21875 56 50.046875 50.171875 
Q 54.890625 44.34375 54.890625 33.015625 
z
" id="DejaVuSans-104"/>
       <path d="M 50.984375 -16.609375 
L 50.984375 -23.578125 
L -0.984375 -23.578125 
L -0.984375 -16.609375 
z
" id="DejaVuSans-95"/>
       <path d="M 9.421875 75.984375 
L 18.40625 75.984375 
L 18.40625 0 
L 9.421875 0 
z
" id="DejaVuSans-108"/>
       <path d="M 34.28125 27.484375 
Q 23.390625 27.484375 19.1875 25 
Q 14.984375 22.515625 14.984375 16.5 
Q 14.984375 11.71875 18.140625 8.90625 
Q 21.296875 6.109375 26.703125 6.109375 
Q 34.1875 6.109375 38.703125 11.40625 
Q 43.21875 16.703125 43.21875 25.484375 
L 43.21875 27.484375 
z
M 52.203125 31.203125 
L 52.203125 0 
L 43.21875 0 
L 43.21875 8.296875 
Q 40.140625 3.328125 35.546875 0.953125 
Q 30.953125 -1.421875 24.3125 -1.421875 
Q 15.921875 -1.421875 10.953125 3.296875 
Q 6 8.015625 6 15.921875 
Q 6 25.140625 12.171875 29.828125 
Q 18.359375 34.515625 30.609375 34.515625 
L 43.21875 34.515625 
L 43.21875 35.40625 
Q 43.21875 41.609375 39.140625 45 
Q 35.0625 48.390625 27.6875 48.390625 
Q 23 48.390625 18.546875 47.265625 
Q 14.109375 46.140625 10.015625 43.890625 
L 10.015625 52.203125 
Q 14.9375 54.109375 19.578125 55.046875 
Q 24.21875 56 28.609375 56 
Q 40.484375 56 46.34375 49.84375 
Q 52.203125 43.703125 52.203125 31.203125 
z
" id="DejaVuSans-97"/>
       <path d="M 41.109375 46.296875 
Q 39.59375 47.171875 37.8125 47.578125 
Q 36.03125 48 33.890625 48 
Q 26.265625 48 22.1875 43.046875 
Q 18.109375 38.09375 18.109375 28.8125 
L 18.109375 0 
L 9.078125 0 
L 9.078125 54.6875 
L 18.109375 54.6875 
L 18.109375 46.1875 
Q 20.953125 51.171875 25.484375 53.578125 
Q 30.03125 56 36.53125 56 
Q 37.453125 56 38.578125 55.875 
Q 39.703125 55.765625 41.0625 55.515625 
z
" id="DejaVuSans-114"/>
       <path d="M 45.40625 27.984375 
Q 45.40625 37.75 41.375 43.109375 
Q 37.359375 48.484375 30.078125 48.484375 
Q 22.859375 48.484375 18.828125 43.109375 
Q 14.796875 37.75 14.796875 27.984375 
Q 14.796875 18.265625 18.828125 12.890625 
Q 22.859375 7.515625 30.078125 7.515625 
Q 37.359375 7.515625 41.375 12.890625 
Q 45.40625 18.265625 45.40625 27.984375 
z
M 54.390625 6.78125 
Q 54.390625 -7.171875 48.1875 -13.984375 
Q 42 -20.796875 29.203125 -20.796875 
Q 24.46875 -20.796875 20.265625 -20.09375 
Q 16.0625 -19.390625 12.109375 -17.921875 
L 12.109375 -9.1875 
Q 16.0625 -11.328125 19.921875 -12.34375 
Q 23.78125 -13.375 27.78125 -13.375 
Q 36.625 -13.375 41.015625 -8.765625 
Q 45.40625 -4.15625 45.40625 5.171875 
L 45.40625 9.625 
Q 42.625 4.78125 38.28125 2.390625 
Q 33.9375 0 27.875 0 
Q 17.828125 0 11.671875 7.65625 
Q 5.515625 15.328125 5.515625 27.984375 
Q 5.515625 40.671875 11.671875 48.328125 
Q 17.828125 56 27.875 56 
Q 33.9375 56 38.28125 53.609375 
Q 42.625 51.21875 45.40625 46.390625 
L 45.40625 54.6875 
L 54.390625 54.6875 
z
" id="DejaVuSans-103"/>
      </defs>
      <g transform="translate(183.346919 371.140937)rotate(-20)scale(0.231 -0.231)">
       <use xlink:href="#DejaVuSans-77"/>
       <use x="86.279297" xlink:href="#DejaVuSans-101"/>
       <use x="147.802734" xlink:href="#DejaVuSans-115"/>
       <use x="199.902344" xlink:href="#DejaVuSans-104"/>
       <use x="263.28125" xlink:href="#DejaVuSans-110"/>
       <use x="326.660156" xlink:href="#DejaVuSans-101"/>
       <use x="388.183594" xlink:href="#DejaVuSans-116"/>
       <use x="427.392578" xlink:href="#DejaVuSans-95"/>
       <use x="477.392578" xlink:href="#DejaVuSans-108"/>
       <use x="505.175781" xlink:href="#DejaVuSans-97"/>
       <use x="566.455078" xlink:href="#DejaVuSans-114"/>
       <use x="605.818359" xlink:href="#DejaVuSans-103"/>
       <use x="669.294922" xlink:href="#DejaVuSans-101"/>
      </g>
     </g>
    </g>
    <g id="xtick_3">
     <g id="line2d_3">
      <g>
       <use style="stroke:#000000;stroke-width:1.875;" x="353.312521" xlink:href="#m58131af368" y="284.406801"/>
      </g>
     </g>
     <g id="text_3">
      <!-- Meshnet -->
      <g transform="translate(309.105984 347.167356)rotate(-20)scale(0.231 -0.231)">
       <use xlink:href="#DejaVuSans-77"/>
       <use x="86.279297" xlink:href="#DejaVuSans-101"/>
       <use x="147.802734" xlink:href="#DejaVuSans-115"/>
       <use x="199.902344" xlink:href="#DejaVuSans-104"/>
       <use x="263.28125" xlink:href="#DejaVuSans-110"/>
       <use x="326.660156" xlink:href="#DejaVuSans-101"/>
       <use x="388.183594" xlink:href="#DejaVuSans-116"/>
      </g>
     </g>
    </g>
    <g id="xtick_4">
     <g id="line2d_4">
      <g>
       <use style="stroke:#000000;stroke-width:1.875;" x="446.02828" xlink:href="#m58131af368" y="284.406801"/>
      </g>
     </g>
     <g id="text_4">
      <!-- 3DVit_large -->
      <defs>
       <path d="M 40.578125 39.3125 
Q 47.65625 37.796875 51.625 33 
Q 55.609375 28.21875 55.609375 21.1875 
Q 55.609375 10.40625 48.1875 4.484375 
Q 40.765625 -1.421875 27.09375 -1.421875 
Q 22.515625 -1.421875 17.65625 -0.515625 
Q 12.796875 0.390625 7.625 2.203125 
L 7.625 11.71875 
Q 11.71875 9.328125 16.59375 8.109375 
Q 21.484375 6.890625 26.8125 6.890625 
Q 36.078125 6.890625 40.9375 10.546875 
Q 45.796875 14.203125 45.796875 21.1875 
Q 45.796875 27.640625 41.28125 31.265625 
Q 36.765625 34.90625 28.71875 34.90625 
L 20.21875 34.90625 
L 20.21875 43.015625 
L 29.109375 43.015625 
Q 36.375 43.015625 40.234375 45.921875 
Q 44.09375 48.828125 44.09375 54.296875 
Q 44.09375 59.90625 40.109375 62.90625 
Q 36.140625 65.921875 28.71875 65.921875 
Q 24.65625 65.921875 20.015625 65.03125 
Q 15.375 64.15625 9.8125 62.3125 
L 9.8125 71.09375 
Q 15.4375 72.65625 20.34375 73.4375 
Q 25.25 74.21875 29.59375 74.21875 
Q 40.828125 74.21875 47.359375 69.109375 
Q 53.90625 64.015625 53.90625 55.328125 
Q 53.90625 49.265625 50.4375 45.09375 
Q 46.96875 40.921875 40.578125 39.3125 
z
" id="DejaVuSans-51"/>
       <path d="M 19.671875 64.796875 
L 19.671875 8.109375 
L 31.59375 8.109375 
Q 46.6875 8.109375 53.6875 14.9375 
Q 60.6875 21.78125 60.6875 36.53125 
Q 60.6875 51.171875 53.6875 57.984375 
Q 46.6875 64.796875 31.59375 64.796875 
z
M 9.8125 72.90625 
L 30.078125 72.90625 
Q 51.265625 72.90625 61.171875 64.09375 
Q 71.09375 55.28125 71.09375 36.53125 
Q 71.09375 17.671875 61.125 8.828125 
Q 51.171875 0 30.078125 0 
L 9.8125 0 
z
" id="DejaVuSans-68"/>
       <path d="M 28.609375 0 
L 0.78125 72.90625 
L 11.078125 72.90625 
L 34.1875 11.53125 
L 57.328125 72.90625 
L 67.578125 72.90625 
L 39.796875 0 
z
" id="DejaVuSans-86"/>
       <path d="M 9.421875 54.6875 
L 18.40625 54.6875 
L 18.40625 0 
L 9.421875 0 
z
M 9.421875 75.984375 
L 18.40625 75.984375 
L 18.40625 64.59375 
L 9.421875 64.59375 
z
" id="DejaVuSans-105"/>
      </defs>
      <g transform="translate(385.641985 358.865278)rotate(-20)scale(0.231 -0.231)">
       <use xlink:href="#DejaVuSans-51"/>
       <use x="63.623047" xlink:href="#DejaVuSans-68"/>
       <use x="138.875" xlink:href="#DejaVuSans-86"/>
       <use x="205.033203" xlink:href="#DejaVuSans-105"/>
       <use x="232.816406" xlink:href="#DejaVuSans-116"/>
       <use x="272.025391" xlink:href="#DejaVuSans-95"/>
       <use x="322.025391" xlink:href="#DejaVuSans-108"/>
       <use x="349.808594" xlink:href="#DejaVuSans-97"/>
       <use x="411.087891" xlink:href="#DejaVuSans-114"/>
       <use x="450.451172" xlink:href="#DejaVuSans-103"/>
       <use x="513.927734" xlink:href="#DejaVuSans-101"/>
      </g>
     </g>
    </g>
    <g id="xtick_5">
     <g id="line2d_5">
      <g>
       <use style="stroke:#000000;stroke-width:1.875;" x="538.74404" xlink:href="#m58131af368" y="284.406801"/>
      </g>
     </g>
     <g id="text_5">
      <!-- 3DVit -->
      <g transform="translate(511.40105 334.891697)rotate(-20)scale(0.231 -0.231)">
       <use xlink:href="#DejaVuSans-51"/>
       <use x="63.623047" xlink:href="#DejaVuSans-68"/>
       <use x="138.875" xlink:href="#DejaVuSans-86"/>
       <use x="205.033203" xlink:href="#DejaVuSans-105"/>
       <use x="232.816406" xlink:href="#DejaVuSans-116"/>
      </g>
     </g>
    </g>
    <g id="text_6">
     <!-- Model -->
     <defs>
      <path d="M 30.609375 48.390625 
Q 23.390625 48.390625 19.1875 42.75 
Q 14.984375 37.109375 14.984375 27.296875 
Q 14.984375 17.484375 19.15625 11.84375 
Q 23.34375 6.203125 30.609375 6.203125 
Q 37.796875 6.203125 41.984375 11.859375 
Q 46.1875 17.53125 46.1875 27.296875 
Q 46.1875 37.015625 41.984375 42.703125 
Q 37.796875 48.390625 30.609375 48.390625 
z
M 30.609375 56 
Q 42.328125 56 49.015625 48.375 
Q 55.71875 40.765625 55.71875 27.296875 
Q 55.71875 13.875 49.015625 6.21875 
Q 42.328125 -1.421875 30.609375 -1.421875 
Q 18.84375 -1.421875 12.171875 6.21875 
Q 5.515625 13.875 5.515625 27.296875 
Q 5.515625 40.765625 12.171875 48.375 
Q 18.84375 56 30.609375 56 
z
" id="DejaVuSans-111"/>
      <path d="M 45.40625 46.390625 
L 45.40625 75.984375 
L 54.390625 75.984375 
L 54.390625 0 
L 45.40625 0 
L 45.40625 8.203125 
Q 42.578125 3.328125 38.25 0.953125 
Q 33.9375 -1.421875 27.875 -1.421875 
Q 17.96875 -1.421875 11.734375 6.484375 
Q 5.515625 14.40625 5.515625 27.296875 
Q 5.515625 40.1875 11.734375 48.09375 
Q 17.96875 56 27.875 56 
Q 33.9375 56 38.25 53.625 
Q 42.578125 51.265625 45.40625 46.390625 
z
M 14.796875 27.296875 
Q 14.796875 17.390625 18.875 11.75 
Q 22.953125 6.109375 30.078125 6.109375 
Q 37.203125 6.109375 41.296875 11.75 
Q 45.40625 17.390625 45.40625 27.296875 
Q 45.40625 37.203125 41.296875 42.84375 
Q 37.203125 48.484375 30.078125 48.484375 
Q 22.953125 48.484375 18.875 42.84375 
Q 14.796875 37.203125 14.796875 27.296875 
z
" id="DejaVuSans-100"/>
     </defs>
     <g transform="translate(315.479052 399.40708)scale(0.252 -0.252)">
      <use xlink:href="#DejaVuSans-77"/>
      <use x="86.279297" xlink:href="#DejaVuSans-111"/>
      <use x="147.460938" xlink:href="#DejaVuSans-100"/>
      <use x="210.9375" xlink:href="#DejaVuSans-101"/>
      <use x="272.460938" xlink:href="#DejaVuSans-108"/>
     </g>
    </g>
   </g>
   <g id="matplotlib.axis_2">
    <g id="ytick_1">
     <g id="line2d_6">
      <defs>
       <path d="M 0 0 
L -9 0 
" id="m83975e82c2" style="stroke:#000000;stroke-width:1.875;"/>
      </defs>
      <g>
       <use style="stroke:#000000;stroke-width:1.875;" x="121.523122" xlink:href="#m83975e82c2" y="172.877484"/>
      </g>
     </g>
     <g id="text_7">
      <!-- $\mathdefault{10^{-1}}$ -->
      <defs>
       <path d="M 12.40625 8.296875 
L 28.515625 8.296875 
L 28.515625 63.921875 
L 10.984375 60.40625 
L 10.984375 69.390625 
L 28.421875 72.90625 
L 38.28125 72.90625 
L 38.28125 8.296875 
L 54.390625 8.296875 
L 54.390625 0 
L 12.40625 0 
z
" id="DejaVuSans-49"/>
       <path d="M 31.78125 66.40625 
Q 24.171875 66.40625 20.328125 58.90625 
Q 16.5 51.421875 16.5 36.375 
Q 16.5 21.390625 20.328125 13.890625 
Q 24.171875 6.390625 31.78125 6.390625 
Q 39.453125 6.390625 43.28125 13.890625 
Q 47.125 21.390625 47.125 36.375 
Q 47.125 51.421875 43.28125 58.90625 
Q 39.453125 66.40625 31.78125 66.40625 
z
M 31.78125 74.21875 
Q 44.046875 74.21875 50.515625 64.515625 
Q 56.984375 54.828125 56.984375 36.375 
Q 56.984375 17.96875 50.515625 8.265625 
Q 44.046875 -1.421875 31.78125 -1.421875 
Q 19.53125 -1.421875 13.0625 8.265625 
Q 6.59375 17.96875 6.59375 36.375 
Q 6.59375 54.828125 13.0625 64.515625 
Q 19.53125 74.21875 31.78125 74.21875 
z
" id="DejaVuSans-48"/>
       <path d="M 10.59375 35.5 
L 73.1875 35.5 
L 73.1875 27.203125 
L 10.59375 27.203125 
z
" id="DejaVuSans-8722"/>
      </defs>
      <g transform="translate(54.738122 181.65368)scale(0.231 -0.231)">
       <use transform="translate(0 0.684375)" xlink:href="#DejaVuSans-49"/>
       <use transform="translate(63.623047 0.684375)" xlink:href="#DejaVuSans-48"/>
       <use transform="translate(128.203125 38.965625)scale(0.7)" xlink:href="#DejaVuSans-8722"/>
       <use transform="translate(186.855469 38.965625)scale(0.7)" xlink:href="#DejaVuSans-49"/>
      </g>
     </g>
    </g>
    <g id="ytick_2">
     <g id="line2d_7">
      <defs>
       <path d="M 0 0 
L -6 0 
" id="mce6f72755b" style="stroke:#000000;stroke-width:1.5;"/>
      </defs>
      <g>
       <use style="stroke:#000000;stroke-width:1.5;" x="121.523122" xlink:href="#mce6f72755b" y="259.09578"/>
      </g>
     </g>
    </g>
    <g id="ytick_3">
     <g id="line2d_8">
      <g>
       <use style="stroke:#000000;stroke-width:1.5;" x="121.523122" xlink:href="#mce6f72755b" y="237.374836"/>
      </g>
     </g>
    </g>
    <g id="ytick_4">
     <g id="line2d_9">
      <g>
       <use style="stroke:#000000;stroke-width:1.5;" x="121.523122" xlink:href="#mce6f72755b" y="221.963581"/>
      </g>
     </g>
    </g>
    <g id="ytick_5">
     <g id="line2d_10">
      <g>
       <use style="stroke:#000000;stroke-width:1.5;" x="121.523122" xlink:href="#mce6f72755b" y="210.009683"/>
      </g>
     </g>
    </g>
    <g id="ytick_6">
     <g id="line2d_11">
      <g>
       <use style="stroke:#000000;stroke-width:1.5;" x="121.523122" xlink:href="#mce6f72755b" y="200.242637"/>
      </g>
     </g>
    </g>
    <g id="ytick_7">
     <g id="line2d_12">
      <g>
       <use style="stroke:#000000;stroke-width:1.5;" x="121.523122" xlink:href="#mce6f72755b" y="191.984718"/>
      </g>
     </g>
    </g>
    <g id="ytick_8">
     <g id="line2d_13">
      <g>
       <use style="stroke:#000000;stroke-width:1.5;" x="121.523122" xlink:href="#mce6f72755b" y="184.831382"/>
      </g>
     </g>
    </g>
    <g id="ytick_9">
     <g id="line2d_14">
      <g>
       <use style="stroke:#000000;stroke-width:1.5;" x="121.523122" xlink:href="#mce6f72755b" y="178.521693"/>
      </g>
     </g>
    </g>
    <g id="ytick_10">
     <g id="line2d_15">
      <g>
       <use style="stroke:#000000;stroke-width:1.5;" x="121.523122" xlink:href="#mce6f72755b" y="135.745285"/>
      </g>
     </g>
    </g>
    <g id="ytick_11">
     <g id="line2d_16">
      <g>
       <use style="stroke:#000000;stroke-width:1.5;" x="121.523122" xlink:href="#mce6f72755b" y="114.024341"/>
      </g>
     </g>
    </g>
    <g id="ytick_12">
     <g id="line2d_17">
      <g>
       <use style="stroke:#000000;stroke-width:1.5;" x="121.523122" xlink:href="#mce6f72755b" y="98.613086"/>
      </g>
     </g>
    </g>
    <g id="ytick_13">
     <g id="line2d_18">
      <g>
       <use style="stroke:#000000;stroke-width:1.5;" x="121.523122" xlink:href="#mce6f72755b" y="86.659188"/>
      </g>
     </g>
    </g>
    <g id="ytick_14">
     <g id="line2d_19">
      <g>
       <use style="stroke:#000000;stroke-width:1.5;" x="121.523122" xlink:href="#mce6f72755b" y="76.892142"/>
      </g>
     </g>
    </g>
    <g id="ytick_15">
     <g id="line2d_20">
      <g>
       <use style="stroke:#000000;stroke-width:1.5;" x="121.523122" xlink:href="#mce6f72755b" y="68.634223"/>
      </g>
     </g>
    </g>
    <g id="ytick_16">
     <g id="line2d_21">
      <g>
       <use style="stroke:#000000;stroke-width:1.5;" x="121.523122" xlink:href="#mce6f72755b" y="61.480887"/>
      </g>
     </g>
    </g>
    <g id="ytick_17">
     <g id="line2d_22">
      <g>
       <use style="stroke:#000000;stroke-width:1.5;" x="121.523122" xlink:href="#mce6f72755b" y="55.171198"/>
      </g>
     </g>
    </g>
    <g id="text_8">
     <!-- Time -->
     <defs>
      <path d="M -0.296875 72.90625 
L 61.375 72.90625 
L 61.375 64.59375 
L 35.5 64.59375 
L 35.5 0 
L 25.59375 0 
L 25.59375 64.59375 
L -0.296875 64.59375 
z
" id="DejaVuSans-84"/>
      <path d="M 52 44.1875 
Q 55.375 50.25 60.0625 53.125 
Q 64.75 56 71.09375 56 
Q 79.640625 56 84.28125 50.015625 
Q 88.921875 44.046875 88.921875 33.015625 
L 88.921875 0 
L 79.890625 0 
L 79.890625 32.71875 
Q 79.890625 40.578125 77.09375 44.375 
Q 74.3125 48.1875 68.609375 48.1875 
Q 61.625 48.1875 57.5625 43.546875 
Q 53.515625 38.921875 53.515625 30.90625 
L 53.515625 0 
L 44.484375 0 
L 44.484375 32.71875 
Q 44.484375 40.625 41.703125 44.40625 
Q 38.921875 48.1875 33.109375 48.1875 
Q 26.21875 48.1875 22.15625 43.53125 
Q 18.109375 38.875 18.109375 30.90625 
L 18.109375 0 
L 9.078125 0 
L 9.078125 54.6875 
L 18.109375 54.6875 
L 18.109375 46.1875 
Q 21.1875 51.21875 25.484375 53.609375 
Q 29.78125 56 35.6875 56 
Q 41.65625 56 45.828125 52.96875 
Q 50 49.953125 52 44.1875 
z
" id="DejaVuSans-109"/>
     </defs>
     <g transform="translate(45.497309 199.360057)rotate(-90)scale(0.252 -0.252)">
      <use xlink:href="#DejaVuSans-84"/>
      <use x="57.958984" xlink:href="#DejaVuSans-105"/>
      <use x="85.742188" xlink:href="#DejaVuSans-109"/>
      <use x="183.154297" xlink:href="#DejaVuSans-101"/>
     </g>
    </g>
   </g>
   <g id="patch_23">
    <path d="M 121.523122 284.406801 
L 121.523122 52.656 
" style="fill:none;stroke:#000000;stroke-linecap:square;stroke-linejoin:miter;stroke-width:1.875;"/>
   </g>
   <g id="patch_24">
    <path d="M 585.101919 284.406801 
L 585.101919 52.656 
" style="fill:none;stroke:#000000;stroke-linecap:square;stroke-linejoin:miter;stroke-width:1.875;"/>
   </g>
   <g id="patch_25">
    <path d="M 121.523122 284.406801 
L 585.101919 284.406801 
" style="fill:none;stroke:#000000;stroke-linecap:square;stroke-linejoin:miter;stroke-width:1.875;"/>
   </g>
   <g id="patch_26">
    <path d="M 121.523122 52.656 
L 585.101919 52.656 
" style="fill:none;stroke:#000000;stroke-linecap:square;stroke-linejoin:miter;stroke-width:1.875;"/>
   </g>
   <g id="text_9">
    <!-- Time of Inference (seconds) -->
    <defs>
     <path id="DejaVuSans-32"/>
     <path d="M 37.109375 75.984375 
L 37.109375 68.5 
L 28.515625 68.5 
Q 23.6875 68.5 21.796875 66.546875 
Q 19.921875 64.59375 19.921875 59.515625 
L 19.921875 54.6875 
L 34.71875 54.6875 
L 34.71875 47.703125 
L 19.921875 47.703125 
L 19.921875 0 
L 10.890625 0 
L 10.890625 47.703125 
L 2.296875 47.703125 
L 2.296875 54.6875 
L 10.890625 54.6875 
L 10.890625 58.5 
Q 10.890625 67.625 15.140625 71.796875 
Q 19.390625 75.984375 28.609375 75.984375 
z
" id="DejaVuSans-102"/>
     <path d="M 9.8125 72.90625 
L 19.671875 72.90625 
L 19.671875 0 
L 9.8125 0 
z
" id="DejaVuSans-73"/>
     <path d="M 48.78125 52.59375 
L 48.78125 44.1875 
Q 44.96875 46.296875 41.140625 47.34375 
Q 37.3125 48.390625 33.40625 48.390625 
Q 24.65625 48.390625 19.8125 42.84375 
Q 14.984375 37.3125 14.984375 27.296875 
Q 14.984375 17.28125 19.8125 11.734375 
Q 24.65625 6.203125 33.40625 6.203125 
Q 37.3125 6.203125 41.140625 7.25 
Q 44.96875 8.296875 48.78125 10.40625 
L 48.78125 2.09375 
Q 45.015625 0.34375 40.984375 -0.53125 
Q 36.96875 -1.421875 32.421875 -1.421875 
Q 20.0625 -1.421875 12.78125 6.34375 
Q 5.515625 14.109375 5.515625 27.296875 
Q 5.515625 40.671875 12.859375 48.328125 
Q 20.21875 56 33.015625 56 
Q 37.15625 56 41.109375 55.140625 
Q 45.0625 54.296875 48.78125 52.59375 
z
" id="DejaVuSans-99"/>
     <path d="M 31 75.875 
Q 24.46875 64.65625 21.28125 53.65625 
Q 18.109375 42.671875 18.109375 31.390625 
Q 18.109375 20.125 21.3125 9.0625 
Q 24.515625 -2 31 -13.1875 
L 23.1875 -13.1875 
Q 15.875 -1.703125 12.234375 9.375 
Q 8.59375 20.453125 8.59375 31.390625 
Q 8.59375 42.28125 12.203125 53.3125 
Q 15.828125 64.359375 23.1875 75.875 
z
" id="DejaVuSans-40"/>
     <path d="M 8.015625 75.875 
L 15.828125 75.875 
Q 23.140625 64.359375 26.78125 53.3125 
Q 30.421875 42.28125 30.421875 31.390625 
Q 30.421875 20.453125 26.78125 9.375 
Q 23.140625 -1.703125 15.828125 -13.1875 
L 8.015625 -13.1875 
Q 14.5 -2 17.703125 9.0625 
Q 20.90625 20.125 20.90625 31.390625 
Q 20.90625 42.671875 17.703125 53.65625 
Q 14.5 64.65625 8.015625 75.875 
z
" id="DejaVuSans-41"/>
    </defs>
    <g transform="translate(177.784677 46.656)scale(0.252 -0.252)">
     <use xlink:href="#DejaVuSans-84"/>
     <use x="57.958984" xlink:href="#DejaVuSans-105"/>
     <use x="85.742188" xlink:href="#DejaVuSans-109"/>
     <use x="183.154297" xlink:href="#DejaVuSans-101"/>
     <use x="244.677734" xlink:href="#DejaVuSans-32"/>
     <use x="276.464844" xlink:href="#DejaVuSans-111"/>
     <use x="337.646484" xlink:href="#DejaVuSans-102"/>
     <use x="372.851562" xlink:href="#DejaVuSans-32"/>
     <use x="404.638672" xlink:href="#DejaVuSans-73"/>
     <use x="434.130859" xlink:href="#DejaVuSans-110"/>
     <use x="497.509766" xlink:href="#DejaVuSans-102"/>
     <use x="532.714844" xlink:href="#DejaVuSans-101"/>
     <use x="594.238281" xlink:href="#DejaVuSans-114"/>
     <use x="633.101562" xlink:href="#DejaVuSans-101"/>
     <use x="694.625" xlink:href="#DejaVuSans-110"/>
     <use x="758.003906" xlink:href="#DejaVuSans-99"/>
     <use x="812.984375" xlink:href="#DejaVuSans-101"/>
     <use x="874.507812" xlink:href="#DejaVuSans-32"/>
     <use x="906.294922" xlink:href="#DejaVuSans-40"/>
     <use x="945.308594" xlink:href="#DejaVuSans-115"/>
     <use x="997.408203" xlink:href="#DejaVuSans-101"/>
     <use x="1058.931641" xlink:href="#DejaVuSans-99"/>
     <use x="1113.912109" xlink:href="#DejaVuSans-111"/>
     <use x="1175.09375" xlink:href="#DejaVuSans-110"/>
     <use x="1238.472656" xlink:href="#DejaVuSans-100"/>
     <use x="1301.949219" xlink:href="#DejaVuSans-115"/>
     <use x="1354.048828" xlink:href="#DejaVuSans-41"/>
    </g>
   </g>
   <g id="legend_1">
    <g id="patch_27">
     <path d="M 601.271919 206.761875 
L 835.765794 206.761875 
Q 840.385794 206.761875 840.385794 202.141875 
L 840.385794 68.826 
Q 840.385794 64.206 835.765794 64.206 
L 601.271919 64.206 
Q 596.651919 64.206 596.651919 68.826 
L 596.651919 202.141875 
Q 596.651919 206.761875 601.271919 206.761875 
z
" style="fill:#ffffff;opacity:0.8;stroke:#cccccc;stroke-linejoin:miter;stroke-width:1.5;"/>
    </g>
    <g id="patch_28">
     <path d="M 605.891919 90.998391 
L 652.091919 90.998391 
L 652.091919 74.828391 
L 605.891919 74.828391 
z
" style="fill:#3274a1;"/>
    </g>
    <g id="text_10">
     <!-- inference-128 -->
     <defs>
      <path d="M 4.890625 31.390625 
L 31.203125 31.390625 
L 31.203125 23.390625 
L 4.890625 23.390625 
z
" id="DejaVuSans-45"/>
      <path d="M 19.1875 8.296875 
L 53.609375 8.296875 
L 53.609375 0 
L 7.328125 0 
L 7.328125 8.296875 
Q 12.9375 14.109375 22.625 23.890625 
Q 32.328125 33.6875 34.8125 36.53125 
Q 39.546875 41.84375 41.421875 45.53125 
Q 43.3125 49.21875 43.3125 52.78125 
Q 43.3125 58.59375 39.234375 62.25 
Q 35.15625 65.921875 28.609375 65.921875 
Q 23.96875 65.921875 18.8125 64.3125 
Q 13.671875 62.703125 7.8125 59.421875 
L 7.8125 69.390625 
Q 13.765625 71.78125 18.9375 73 
Q 24.125 74.21875 28.421875 74.21875 
Q 39.75 74.21875 46.484375 68.546875 
Q 53.21875 62.890625 53.21875 53.421875 
Q 53.21875 48.921875 51.53125 44.890625 
Q 49.859375 40.875 45.40625 35.40625 
Q 44.1875 33.984375 37.640625 27.21875 
Q 31.109375 20.453125 19.1875 8.296875 
z
" id="DejaVuSans-50"/>
      <path d="M 31.78125 34.625 
Q 24.75 34.625 20.71875 30.859375 
Q 16.703125 27.09375 16.703125 20.515625 
Q 16.703125 13.921875 20.71875 10.15625 
Q 24.75 6.390625 31.78125 6.390625 
Q 38.8125 6.390625 42.859375 10.171875 
Q 46.921875 13.96875 46.921875 20.515625 
Q 46.921875 27.09375 42.890625 30.859375 
Q 38.875 34.625 31.78125 34.625 
z
M 21.921875 38.8125 
Q 15.578125 40.375 12.03125 44.71875 
Q 8.5 49.078125 8.5 55.328125 
Q 8.5 64.0625 14.71875 69.140625 
Q 20.953125 74.21875 31.78125 74.21875 
Q 42.671875 74.21875 48.875 69.140625 
Q 55.078125 64.0625 55.078125 55.328125 
Q 55.078125 49.078125 51.53125 44.71875 
Q 48 40.375 41.703125 38.8125 
Q 48.828125 37.15625 52.796875 32.3125 
Q 56.78125 27.484375 56.78125 20.515625 
Q 56.78125 9.90625 50.3125 4.234375 
Q 43.84375 -1.421875 31.78125 -1.421875 
Q 19.734375 -1.421875 13.25 4.234375 
Q 6.78125 9.90625 6.78125 20.515625 
Q 6.78125 27.484375 10.78125 32.3125 
Q 14.796875 37.15625 21.921875 38.8125 
z
M 18.3125 54.390625 
Q 18.3125 48.734375 21.84375 45.5625 
Q 25.390625 42.390625 31.78125 42.390625 
Q 38.140625 42.390625 41.71875 45.5625 
Q 45.3125 48.734375 45.3125 54.390625 
Q 45.3125 60.0625 41.71875 63.234375 
Q 38.140625 66.40625 31.78125 66.40625 
Q 25.390625 66.40625 21.84375 63.234375 
Q 18.3125 60.0625 18.3125 54.390625 
z
" id="DejaVuSans-56"/>
     </defs>
     <g transform="translate(670.571919 90.998391)scale(0.231 -0.231)">
      <use xlink:href="#DejaVuSans-105"/>
      <use x="27.783203" xlink:href="#DejaVuSans-110"/>
      <use x="91.162109" xlink:href="#DejaVuSans-102"/>
      <use x="126.367188" xlink:href="#DejaVuSans-101"/>
      <use x="187.890625" xlink:href="#DejaVuSans-114"/>
      <use x="226.753906" xlink:href="#DejaVuSans-101"/>
      <use x="288.277344" xlink:href="#DejaVuSans-110"/>
      <use x="351.65625" xlink:href="#DejaVuSans-99"/>
      <use x="406.636719" xlink:href="#DejaVuSans-101"/>
      <use x="468.160156" xlink:href="#DejaVuSans-45"/>
      <use x="504.244141" xlink:href="#DejaVuSans-49"/>
      <use x="567.867188" xlink:href="#DejaVuSans-50"/>
      <use x="631.490234" xlink:href="#DejaVuSans-56"/>
     </g>
    </g>
    <g id="patch_29">
     <path d="M 605.891919 124.904859 
L 652.091919 124.904859 
L 652.091919 108.734859 
L 605.891919 108.734859 
z
" style="fill:#e1812c;"/>
    </g>
    <g id="text_11">
     <!-- inference-256 -->
     <defs>
      <path d="M 10.796875 72.90625 
L 49.515625 72.90625 
L 49.515625 64.59375 
L 19.828125 64.59375 
L 19.828125 46.734375 
Q 21.96875 47.46875 24.109375 47.828125 
Q 26.265625 48.1875 28.421875 48.1875 
Q 40.625 48.1875 47.75 41.5 
Q 54.890625 34.8125 54.890625 23.390625 
Q 54.890625 11.625 47.5625 5.09375 
Q 40.234375 -1.421875 26.90625 -1.421875 
Q 22.3125 -1.421875 17.546875 -0.640625 
Q 12.796875 0.140625 7.71875 1.703125 
L 7.71875 11.625 
Q 12.109375 9.234375 16.796875 8.0625 
Q 21.484375 6.890625 26.703125 6.890625 
Q 35.15625 6.890625 40.078125 11.328125 
Q 45.015625 15.765625 45.015625 23.390625 
Q 45.015625 31 40.078125 35.4375 
Q 35.15625 39.890625 26.703125 39.890625 
Q 22.75 39.890625 18.8125 39.015625 
Q 14.890625 38.140625 10.796875 36.28125 
z
" id="DejaVuSans-53"/>
      <path d="M 33.015625 40.375 
Q 26.375 40.375 22.484375 35.828125 
Q 18.609375 31.296875 18.609375 23.390625 
Q 18.609375 15.53125 22.484375 10.953125 
Q 26.375 6.390625 33.015625 6.390625 
Q 39.65625 6.390625 43.53125 10.953125 
Q 47.40625 15.53125 47.40625 23.390625 
Q 47.40625 31.296875 43.53125 35.828125 
Q 39.65625 40.375 33.015625 40.375 
z
M 52.59375 71.296875 
L 52.59375 62.3125 
Q 48.875 64.0625 45.09375 64.984375 
Q 41.3125 65.921875 37.59375 65.921875 
Q 27.828125 65.921875 22.671875 59.328125 
Q 17.53125 52.734375 16.796875 39.40625 
Q 19.671875 43.65625 24.015625 45.921875 
Q 28.375 48.1875 33.59375 48.1875 
Q 44.578125 48.1875 50.953125 41.515625 
Q 57.328125 34.859375 57.328125 23.390625 
Q 57.328125 12.15625 50.6875 5.359375 
Q 44.046875 -1.421875 33.015625 -1.421875 
Q 20.359375 -1.421875 13.671875 8.265625 
Q 6.984375 17.96875 6.984375 36.375 
Q 6.984375 53.65625 15.1875 63.9375 
Q 23.390625 74.21875 37.203125 74.21875 
Q 40.921875 74.21875 44.703125 73.484375 
Q 48.484375 72.75 52.59375 71.296875 
z
" id="DejaVuSans-54"/>
     </defs>
     <g transform="translate(670.571919 124.904859)scale(0.231 -0.231)">
      <use xlink:href="#DejaVuSans-105"/>
      <use x="27.783203" xlink:href="#DejaVuSans-110"/>
      <use x="91.162109" xlink:href="#DejaVuSans-102"/>
      <use x="126.367188" xlink:href="#DejaVuSans-101"/>
      <use x="187.890625" xlink:href="#DejaVuSans-114"/>
      <use x="226.753906" xlink:href="#DejaVuSans-101"/>
      <use x="288.277344" xlink:href="#DejaVuSans-110"/>
      <use x="351.65625" xlink:href="#DejaVuSans-99"/>
      <use x="406.636719" xlink:href="#DejaVuSans-101"/>
      <use x="468.160156" xlink:href="#DejaVuSans-45"/>
      <use x="504.244141" xlink:href="#DejaVuSans-50"/>
      <use x="567.867188" xlink:href="#DejaVuSans-53"/>
      <use x="631.490234" xlink:href="#DejaVuSans-54"/>
     </g>
    </g>
    <g id="patch_30">
     <path d="M 605.891919 158.811328 
L 652.091919 158.811328 
L 652.091919 142.641328 
L 605.891919 142.641328 
z
" style="fill:#3a923a;"/>
    </g>
    <g id="text_12">
     <!-- train-128 -->
     <g transform="translate(670.571919 158.811328)scale(0.231 -0.231)">
      <use xlink:href="#DejaVuSans-116"/>
      <use x="39.208984" xlink:href="#DejaVuSans-114"/>
      <use x="80.322266" xlink:href="#DejaVuSans-97"/>
      <use x="141.601562" xlink:href="#DejaVuSans-105"/>
      <use x="169.384766" xlink:href="#DejaVuSans-110"/>
      <use x="232.763672" xlink:href="#DejaVuSans-45"/>
      <use x="268.847656" xlink:href="#DejaVuSans-49"/>
      <use x="332.470703" xlink:href="#DejaVuSans-50"/>
      <use x="396.09375" xlink:href="#DejaVuSans-56"/>
     </g>
    </g>
    <g id="patch_31">
     <path d="M 605.891919 192.717797 
L 652.091919 192.717797 
L 652.091919 176.547797 
L 605.891919 176.547797 
z
" style="fill:#c03d3e;"/>
    </g>
    <g id="text_13">
     <!-- train-256 -->
     <g transform="translate(670.571919 192.717797)scale(0.231 -0.231)">
      <use xlink:href="#DejaVuSans-116"/>
      <use x="39.208984" xlink:href="#DejaVuSans-114"/>
      <use x="80.322266" xlink:href="#DejaVuSans-97"/>
      <use x="141.601562" xlink:href="#DejaVuSans-105"/>
      <use x="169.384766" xlink:href="#DejaVuSans-110"/>
      <use x="232.763672" xlink:href="#DejaVuSans-45"/>
      <use x="268.847656" xlink:href="#DejaVuSans-50"/>
      <use x="332.470703" xlink:href="#DejaVuSans-53"/>
      <use x="396.09375" xlink:href="#DejaVuSans-54"/>
     </g>
    </g>
   </g>
  </g>
  <g id="axes_2">
   <g id="patch_32">
    <path d="M 949.205203 284.406801 
L 1412.784 284.406801 
L 1412.784 52.656 
L 949.205203 52.656 
z
" style="fill:#ffffff;"/>
   </g>
   <g id="patch_33">
    <path clip-path="url(#p74ad8c0452)" d="M 958.476779 86822.547058 
L 977.01993 86822.547058 
L 977.01993 210.597478 
L 958.476779 210.597478 
z
" style="fill:#3274a1;"/>
   </g>
   <g id="patch_34">
    <path clip-path="url(#p74ad8c0452)" d="M 1051.192538 86822.547058 
L 1069.73569 86822.547058 
L 1069.73569 146.67594 
L 1051.192538 146.67594 
z
" style="fill:#3274a1;"/>
   </g>
   <g id="patch_35">
    <path clip-path="url(#p74ad8c0452)" d="M 1143.908298 86822.547058 
L 1162.451449 86822.547058 
L 1162.451449 179.205267 
L 1143.908298 179.205267 
z
" style="fill:#3274a1;"/>
   </g>
   <g id="patch_36">
    <path clip-path="url(#p74ad8c0452)" d="M 1236.624057 86822.547058 
L 1255.167209 86822.547058 
L 1255.167209 243.168939 
L 1236.624057 243.168939 
z
" style="fill:#3274a1;"/>
   </g>
   <g id="patch_37">
    <path clip-path="url(#p74ad8c0452)" d="M 1329.339816 86822.547058 
L 1347.882968 86822.547058 
L 1347.882968 273.872674 
L 1329.339816 273.872674 
z
" style="fill:#3274a1;"/>
   </g>
   <g id="patch_38">
    <path clip-path="url(#p74ad8c0452)" d="M 977.01993 86822.547058 
L 995.563082 86822.547058 
L 995.563082 133.542739 
L 977.01993 133.542739 
z
" style="fill:#e1812c;"/>
   </g>
   <g id="patch_39">
    <path clip-path="url(#p74ad8c0452)" d="M 1069.73569 86822.547058 
L 1088.278842 86822.547058 
L 1088.278842 68.727284 
L 1069.73569 68.727284 
z
" style="fill:#e1812c;"/>
   </g>
   <g id="patch_40">
    <path clip-path="url(#p74ad8c0452)" d="M 1162.451449 86822.547058 
L 1180.994601 86822.547058 
L 1180.994601 101.358739 
L 1162.451449 101.358739 
z
" style="fill:#e1812c;"/>
   </g>
   <g id="patch_41">
    <path clip-path="url(#p74ad8c0452)" d="M 1255.167209 86822.547058 
L 1273.710361 86822.547058 
L 1273.710361 63.190127 
L 1255.167209 63.190127 
z
" style="fill:#e1812c;"/>
   </g>
   <g id="patch_42">
    <path clip-path="url(#p74ad8c0452)" d="M 1347.882968 86822.547058 
L 1366.42612 86822.547058 
L 1366.42612 140.081805 
L 1347.882968 140.081805 
z
" style="fill:#e1812c;"/>
   </g>
   <g id="patch_43">
    <path clip-path="url(#p74ad8c0452)" d="M 995.563082 86822.547058 
L 1014.106234 86822.547058 
L 1014.106234 183.113926 
L 995.563082 183.113926 
z
" style="fill:#3a923a;"/>
   </g>
   <g id="patch_44">
    <path clip-path="url(#p74ad8c0452)" d="M 1088.278842 86822.547058 
L 1106.821994 86822.547058 
L 1106.821994 69.733324 
L 1088.278842 69.733324 
z
" style="fill:#3a923a;"/>
   </g>
   <g id="patch_45">
    <path clip-path="url(#p74ad8c0452)" d="M 1180.994601 86822.547058 
L 1199.537753 86822.547058 
L 1199.537753 114.26931 
L 1180.994601 114.26931 
z
" style="fill:#3a923a;"/>
   </g>
   <g id="patch_46">
    <path clip-path="url(#p74ad8c0452)" d="M 1273.710361 86822.547058 
L 1292.253513 86822.547058 
L 1292.253513 118.938299 
L 1273.710361 118.938299 
z
" style="fill:#3a923a;"/>
   </g>
   <g id="patch_47">
    <path clip-path="url(#p74ad8c0452)" d="M 1366.42612 86822.547058 
L 1384.969272 86822.547058 
L 1384.969272 142.191093 
L 1366.42612 142.191093 
z
" style="fill:#3a923a;"/>
   </g>
   <g id="patch_48">
    <path clip-path="url(#p74ad8c0452)" d="M 1014.106234 86822.547058 
L 1032.649386 86822.547058 
L 1032.649386 103.231621 
L 1014.106234 103.231621 
z
" style="fill:#c03d3e;"/>
   </g>
   <g id="patch_49">
    <path clip-path="url(#p74ad8c0452)" d="z
" style="fill:#c03d3e;"/>
   </g>
   <g id="patch_50">
    <path clip-path="url(#p74ad8c0452)" d="z
" style="fill:#c03d3e;"/>
   </g>
   <g id="patch_51">
    <path clip-path="url(#p74ad8c0452)" d="z
" style="fill:#c03d3e;"/>
   </g>
   <g id="patch_52">
    <path clip-path="url(#p74ad8c0452)" d="z
" style="fill:#c03d3e;"/>
   </g>
   <g id="matplotlib.axis_3">
    <g id="xtick_6">
     <g id="line2d_23">
      <g>
       <use style="stroke:#000000;stroke-width:1.875;" x="995.563082" xlink:href="#m58131af368" y="284.406801"/>
      </g>
     </g>
     <g id="text_14">
      <!-- Unet -->
      <g transform="translate(971.988275 332.148685)rotate(-20)scale(0.231 -0.231)">
       <use xlink:href="#DejaVuSans-85"/>
       <use x="73.193359" xlink:href="#DejaVuSans-110"/>
       <use x="136.572266" xlink:href="#DejaVuSans-101"/>
       <use x="198.095703" xlink:href="#DejaVuSans-116"/>
      </g>
     </g>
    </g>
    <g id="xtick_7">
     <g id="line2d_24">
      <g>
       <use style="stroke:#000000;stroke-width:1.875;" x="1088.278842" xlink:href="#m58131af368" y="284.406801"/>
      </g>
     </g>
     <g id="text_15">
      <!-- Meshnet_large -->
      <g transform="translate(1011.029 371.140937)rotate(-20)scale(0.231 -0.231)">
       <use xlink:href="#DejaVuSans-77"/>
       <use x="86.279297" xlink:href="#DejaVuSans-101"/>
       <use x="147.802734" xlink:href="#DejaVuSans-115"/>
       <use x="199.902344" xlink:href="#DejaVuSans-104"/>
       <use x="263.28125" xlink:href="#DejaVuSans-110"/>
       <use x="326.660156" xlink:href="#DejaVuSans-101"/>
       <use x="388.183594" xlink:href="#DejaVuSans-116"/>
       <use x="427.392578" xlink:href="#DejaVuSans-95"/>
       <use x="477.392578" xlink:href="#DejaVuSans-108"/>
       <use x="505.175781" xlink:href="#DejaVuSans-97"/>
       <use x="566.455078" xlink:href="#DejaVuSans-114"/>
       <use x="605.818359" xlink:href="#DejaVuSans-103"/>
       <use x="669.294922" xlink:href="#DejaVuSans-101"/>
      </g>
     </g>
    </g>
    <g id="xtick_8">
     <g id="line2d_25">
      <g>
       <use style="stroke:#000000;stroke-width:1.875;" x="1180.994601" xlink:href="#m58131af368" y="284.406801"/>
      </g>
     </g>
     <g id="text_16">
      <!-- Meshnet -->
      <g transform="translate(1136.788064 347.167356)rotate(-20)scale(0.231 -0.231)">
       <use xlink:href="#DejaVuSans-77"/>
       <use x="86.279297" xlink:href="#DejaVuSans-101"/>
       <use x="147.802734" xlink:href="#DejaVuSans-115"/>
       <use x="199.902344" xlink:href="#DejaVuSans-104"/>
       <use x="263.28125" xlink:href="#DejaVuSans-110"/>
       <use x="326.660156" xlink:href="#DejaVuSans-101"/>
       <use x="388.183594" xlink:href="#DejaVuSans-116"/>
      </g>
     </g>
    </g>
    <g id="xtick_9">
     <g id="line2d_26">
      <g>
       <use style="stroke:#000000;stroke-width:1.875;" x="1273.710361" xlink:href="#m58131af368" y="284.406801"/>
      </g>
     </g>
     <g id="text_17">
      <!-- 3DVit_large -->
      <g transform="translate(1213.324066 358.865278)rotate(-20)scale(0.231 -0.231)">
       <use xlink:href="#DejaVuSans-51"/>
       <use x="63.623047" xlink:href="#DejaVuSans-68"/>
       <use x="138.875" xlink:href="#DejaVuSans-86"/>
       <use x="205.033203" xlink:href="#DejaVuSans-105"/>
       <use x="232.816406" xlink:href="#DejaVuSans-116"/>
       <use x="272.025391" xlink:href="#DejaVuSans-95"/>
       <use x="322.025391" xlink:href="#DejaVuSans-108"/>
       <use x="349.808594" xlink:href="#DejaVuSans-97"/>
       <use x="411.087891" xlink:href="#DejaVuSans-114"/>
       <use x="450.451172" xlink:href="#DejaVuSans-103"/>
       <use x="513.927734" xlink:href="#DejaVuSans-101"/>
      </g>
     </g>
    </g>
    <g id="xtick_10">
     <g id="line2d_27">
      <g>
       <use style="stroke:#000000;stroke-width:1.875;" x="1366.42612" xlink:href="#m58131af368" y="284.406801"/>
      </g>
     </g>
     <g id="text_18">
      <!-- 3DVit -->
      <g transform="translate(1339.083131 334.891697)rotate(-20)scale(0.231 -0.231)">
       <use xlink:href="#DejaVuSans-51"/>
       <use x="63.623047" xlink:href="#DejaVuSans-68"/>
       <use x="138.875" xlink:href="#DejaVuSans-86"/>
       <use x="205.033203" xlink:href="#DejaVuSans-105"/>
       <use x="232.816406" xlink:href="#DejaVuSans-116"/>
      </g>
     </g>
    </g>
    <g id="text_19">
     <!-- Model -->
     <g transform="translate(1143.161133 399.40708)scale(0.252 -0.252)">
      <use xlink:href="#DejaVuSans-77"/>
      <use x="86.279297" xlink:href="#DejaVuSans-111"/>
      <use x="147.460938" xlink:href="#DejaVuSans-100"/>
      <use x="210.9375" xlink:href="#DejaVuSans-101"/>
      <use x="272.460938" xlink:href="#DejaVuSans-108"/>
     </g>
    </g>
   </g>
   <g id="matplotlib.axis_4">
    <g id="ytick_18">
     <g id="line2d_28">
      <g>
       <use style="stroke:#000000;stroke-width:1.875;" x="949.205203" xlink:href="#m83975e82c2" y="254.70604"/>
      </g>
     </g>
     <g id="text_20">
      <!-- $\mathdefault{10^{2}}$ -->
      <g transform="translate(896.049203 263.482235)scale(0.231 -0.231)">
       <use transform="translate(0 0.765625)" xlink:href="#DejaVuSans-49"/>
       <use transform="translate(63.623047 0.765625)" xlink:href="#DejaVuSans-48"/>
       <use transform="translate(128.203125 39.046875)scale(0.7)" xlink:href="#DejaVuSans-50"/>
      </g>
     </g>
    </g>
    <g id="ytick_19">
     <g id="line2d_29">
      <g>
       <use style="stroke:#000000;stroke-width:1.875;" x="949.205203" xlink:href="#m83975e82c2" y="168.310989"/>
      </g>
     </g>
     <g id="text_21">
      <!-- $\mathdefault{10^{3}}$ -->
      <g transform="translate(896.049203 177.087184)scale(0.231 -0.231)">
       <use transform="translate(0 0.765625)" xlink:href="#DejaVuSans-49"/>
       <use transform="translate(63.623047 0.765625)" xlink:href="#DejaVuSans-48"/>
       <use transform="translate(128.203125 39.046875)scale(0.7)" xlink:href="#DejaVuSans-51"/>
      </g>
     </g>
    </g>
    <g id="ytick_20">
     <g id="line2d_30">
      <g>
       <use style="stroke:#000000;stroke-width:1.875;" x="949.205203" xlink:href="#m83975e82c2" y="81.915938"/>
      </g>
     </g>
     <g id="text_22">
      <!-- $\mathdefault{10^{4}}$ -->
      <defs>
       <path d="M 37.796875 64.3125 
L 12.890625 25.390625 
L 37.796875 25.390625 
z
M 35.203125 72.90625 
L 47.609375 72.90625 
L 47.609375 25.390625 
L 58.015625 25.390625 
L 58.015625 17.1875 
L 47.609375 17.1875 
L 47.609375 0 
L 37.796875 0 
L 37.796875 17.1875 
L 4.890625 17.1875 
L 4.890625 26.703125 
z
" id="DejaVuSans-52"/>
      </defs>
      <g transform="translate(896.049203 90.692133)scale(0.231 -0.231)">
       <use transform="translate(0 0.684375)" xlink:href="#DejaVuSans-49"/>
       <use transform="translate(63.623047 0.684375)" xlink:href="#DejaVuSans-48"/>
       <use transform="translate(128.203125 38.965625)scale(0.7)" xlink:href="#DejaVuSans-52"/>
      </g>
     </g>
    </g>
    <g id="ytick_21">
     <g id="line2d_31">
      <g>
       <use style="stroke:#000000;stroke-width:1.5;" x="949.205203" xlink:href="#mce6f72755b" y="280.713541"/>
      </g>
     </g>
    </g>
    <g id="ytick_22">
     <g id="line2d_32">
      <g>
       <use style="stroke:#000000;stroke-width:1.5;" x="949.205203" xlink:href="#mce6f72755b" y="273.872674"/>
      </g>
     </g>
    </g>
    <g id="ytick_23">
     <g id="line2d_33">
      <g>
       <use style="stroke:#000000;stroke-width:1.5;" x="949.205203" xlink:href="#mce6f72755b" y="268.088802"/>
      </g>
     </g>
    </g>
    <g id="ytick_24">
     <g id="line2d_34">
      <g>
       <use style="stroke:#000000;stroke-width:1.5;" x="949.205203" xlink:href="#mce6f72755b" y="263.078585"/>
      </g>
     </g>
    </g>
    <g id="ytick_25">
     <g id="line2d_35">
      <g>
       <use style="stroke:#000000;stroke-width:1.5;" x="949.205203" xlink:href="#mce6f72755b" y="258.65926"/>
      </g>
     </g>
    </g>
    <g id="ytick_26">
     <g id="line2d_36">
      <g>
       <use style="stroke:#000000;stroke-width:1.5;" x="949.205203" xlink:href="#mce6f72755b" y="228.698538"/>
      </g>
     </g>
    </g>
    <g id="ytick_27">
     <g id="line2d_37">
      <g>
       <use style="stroke:#000000;stroke-width:1.5;" x="949.205203" xlink:href="#mce6f72755b" y="213.485125"/>
      </g>
     </g>
    </g>
    <g id="ytick_28">
     <g id="line2d_38">
      <g>
       <use style="stroke:#000000;stroke-width:1.5;" x="949.205203" xlink:href="#mce6f72755b" y="202.691036"/>
      </g>
     </g>
    </g>
    <g id="ytick_29">
     <g id="line2d_39">
      <g>
       <use style="stroke:#000000;stroke-width:1.5;" x="949.205203" xlink:href="#mce6f72755b" y="194.318491"/>
      </g>
     </g>
    </g>
    <g id="ytick_30">
     <g id="line2d_40">
      <g>
       <use style="stroke:#000000;stroke-width:1.5;" x="949.205203" xlink:href="#mce6f72755b" y="187.477623"/>
      </g>
     </g>
    </g>
    <g id="ytick_31">
     <g id="line2d_41">
      <g>
       <use style="stroke:#000000;stroke-width:1.5;" x="949.205203" xlink:href="#mce6f72755b" y="181.693751"/>
      </g>
     </g>
    </g>
    <g id="ytick_32">
     <g id="line2d_42">
      <g>
       <use style="stroke:#000000;stroke-width:1.5;" x="949.205203" xlink:href="#mce6f72755b" y="176.683534"/>
      </g>
     </g>
    </g>
    <g id="ytick_33">
     <g id="line2d_43">
      <g>
       <use style="stroke:#000000;stroke-width:1.5;" x="949.205203" xlink:href="#mce6f72755b" y="172.264209"/>
      </g>
     </g>
    </g>
    <g id="ytick_34">
     <g id="line2d_44">
      <g>
       <use style="stroke:#000000;stroke-width:1.5;" x="949.205203" xlink:href="#mce6f72755b" y="142.303487"/>
      </g>
     </g>
    </g>
    <g id="ytick_35">
     <g id="line2d_45">
      <g>
       <use style="stroke:#000000;stroke-width:1.5;" x="949.205203" xlink:href="#mce6f72755b" y="127.090074"/>
      </g>
     </g>
    </g>
    <g id="ytick_36">
     <g id="line2d_46">
      <g>
       <use style="stroke:#000000;stroke-width:1.5;" x="949.205203" xlink:href="#mce6f72755b" y="116.295985"/>
      </g>
     </g>
    </g>
    <g id="ytick_37">
     <g id="line2d_47">
      <g>
       <use style="stroke:#000000;stroke-width:1.5;" x="949.205203" xlink:href="#mce6f72755b" y="107.92344"/>
      </g>
     </g>
    </g>
    <g id="ytick_38">
     <g id="line2d_48">
      <g>
       <use style="stroke:#000000;stroke-width:1.5;" x="949.205203" xlink:href="#mce6f72755b" y="101.082572"/>
      </g>
     </g>
    </g>
    <g id="ytick_39">
     <g id="line2d_49">
      <g>
       <use style="stroke:#000000;stroke-width:1.5;" x="949.205203" xlink:href="#mce6f72755b" y="95.298701"/>
      </g>
     </g>
    </g>
    <g id="ytick_40">
     <g id="line2d_50">
      <g>
       <use style="stroke:#000000;stroke-width:1.5;" x="949.205203" xlink:href="#mce6f72755b" y="90.288483"/>
      </g>
     </g>
    </g>
    <g id="ytick_41">
     <g id="line2d_51">
      <g>
       <use style="stroke:#000000;stroke-width:1.5;" x="949.205203" xlink:href="#mce6f72755b" y="85.869159"/>
      </g>
     </g>
    </g>
    <g id="ytick_42">
     <g id="line2d_52">
      <g>
       <use style="stroke:#000000;stroke-width:1.5;" x="949.205203" xlink:href="#mce6f72755b" y="55.908436"/>
      </g>
     </g>
    </g>
    <g id="text_23">
     <!-- GPU -->
     <defs>
      <path d="M 59.515625 10.40625 
L 59.515625 29.984375 
L 43.40625 29.984375 
L 43.40625 38.09375 
L 69.28125 38.09375 
L 69.28125 6.78125 
Q 63.578125 2.734375 56.6875 0.65625 
Q 49.8125 -1.421875 42 -1.421875 
Q 24.90625 -1.421875 15.25 8.5625 
Q 5.609375 18.5625 5.609375 36.375 
Q 5.609375 54.25 15.25 64.234375 
Q 24.90625 74.21875 42 74.21875 
Q 49.125 74.21875 55.546875 72.453125 
Q 61.96875 70.703125 67.390625 67.28125 
L 67.390625 56.78125 
Q 61.921875 61.421875 55.765625 63.765625 
Q 49.609375 66.109375 42.828125 66.109375 
Q 29.4375 66.109375 22.71875 58.640625 
Q 16.015625 51.171875 16.015625 36.375 
Q 16.015625 21.625 22.71875 14.15625 
Q 29.4375 6.6875 42.828125 6.6875 
Q 48.046875 6.6875 52.140625 7.59375 
Q 56.25 8.5 59.515625 10.40625 
z
" id="DejaVuSans-71"/>
      <path d="M 19.671875 64.796875 
L 19.671875 37.40625 
L 32.078125 37.40625 
Q 38.96875 37.40625 42.71875 40.96875 
Q 46.484375 44.53125 46.484375 51.125 
Q 46.484375 57.671875 42.71875 61.234375 
Q 38.96875 64.796875 32.078125 64.796875 
z
M 9.8125 72.90625 
L 32.078125 72.90625 
Q 44.34375 72.90625 50.609375 67.359375 
Q 56.890625 61.8125 56.890625 51.125 
Q 56.890625 40.328125 50.609375 34.8125 
Q 44.34375 29.296875 32.078125 29.296875 
L 19.671875 29.296875 
L 19.671875 0 
L 9.8125 0 
z
" id="DejaVuSans-80"/>
     </defs>
     <g transform="translate(886.80839 195.113463)rotate(-90)scale(0.252 -0.252)">
      <use xlink:href="#DejaVuSans-71"/>
      <use x="77.490234" xlink:href="#DejaVuSans-80"/>
      <use x="137.792969" xlink:href="#DejaVuSans-85"/>
     </g>
    </g>
   </g>
   <g id="patch_53">
    <path d="M 949.205203 284.406801 
L 949.205203 52.656 
" style="fill:none;stroke:#000000;stroke-linecap:square;stroke-linejoin:miter;stroke-width:1.875;"/>
   </g>
   <g id="patch_54">
    <path d="M 1412.784 284.406801 
L 1412.784 52.656 
" style="fill:none;stroke:#000000;stroke-linecap:square;stroke-linejoin:miter;stroke-width:1.875;"/>
   </g>
   <g id="patch_55">
    <path d="M 949.205203 284.406801 
L 1412.784 284.406801 
" style="fill:none;stroke:#000000;stroke-linecap:square;stroke-linejoin:miter;stroke-width:1.875;"/>
   </g>
   <g id="patch_56">
    <path d="M 949.205203 52.656 
L 1412.784 52.656 
" style="fill:none;stroke:#000000;stroke-linecap:square;stroke-linejoin:miter;stroke-width:1.875;"/>
   </g>
   <g id="text_24">
    <!-- GPU Consumption (MB) -->
    <defs>
     <path d="M 64.40625 67.28125 
L 64.40625 56.890625 
Q 59.421875 61.53125 53.78125 63.8125 
Q 48.140625 66.109375 41.796875 66.109375 
Q 29.296875 66.109375 22.65625 58.46875 
Q 16.015625 50.828125 16.015625 36.375 
Q 16.015625 21.96875 22.65625 14.328125 
Q 29.296875 6.6875 41.796875 6.6875 
Q 48.140625 6.6875 53.78125 8.984375 
Q 59.421875 11.28125 64.40625 15.921875 
L 64.40625 5.609375 
Q 59.234375 2.09375 53.4375 0.328125 
Q 47.65625 -1.421875 41.21875 -1.421875 
Q 24.65625 -1.421875 15.125 8.703125 
Q 5.609375 18.84375 5.609375 36.375 
Q 5.609375 53.953125 15.125 64.078125 
Q 24.65625 74.21875 41.21875 74.21875 
Q 47.75 74.21875 53.53125 72.484375 
Q 59.328125 70.75 64.40625 67.28125 
z
" id="DejaVuSans-67"/>
     <path d="M 8.5 21.578125 
L 8.5 54.6875 
L 17.484375 54.6875 
L 17.484375 21.921875 
Q 17.484375 14.15625 20.5 10.265625 
Q 23.53125 6.390625 29.59375 6.390625 
Q 36.859375 6.390625 41.078125 11.03125 
Q 45.3125 15.671875 45.3125 23.6875 
L 45.3125 54.6875 
L 54.296875 54.6875 
L 54.296875 0 
L 45.3125 0 
L 45.3125 8.40625 
Q 42.046875 3.421875 37.71875 1 
Q 33.40625 -1.421875 27.6875 -1.421875 
Q 18.265625 -1.421875 13.375 4.4375 
Q 8.5 10.296875 8.5 21.578125 
z
M 31.109375 56 
z
" id="DejaVuSans-117"/>
     <path d="M 18.109375 8.203125 
L 18.109375 -20.796875 
L 9.078125 -20.796875 
L 9.078125 54.6875 
L 18.109375 54.6875 
L 18.109375 46.390625 
Q 20.953125 51.265625 25.265625 53.625 
Q 29.59375 56 35.59375 56 
Q 45.5625 56 51.78125 48.09375 
Q 58.015625 40.1875 58.015625 27.296875 
Q 58.015625 14.40625 51.78125 6.484375 
Q 45.5625 -1.421875 35.59375 -1.421875 
Q 29.59375 -1.421875 25.265625 0.953125 
Q 20.953125 3.328125 18.109375 8.203125 
z
M 48.6875 27.296875 
Q 48.6875 37.203125 44.609375 42.84375 
Q 40.53125 48.484375 33.40625 48.484375 
Q 26.265625 48.484375 22.1875 42.84375 
Q 18.109375 37.203125 18.109375 27.296875 
Q 18.109375 17.390625 22.1875 11.75 
Q 26.265625 6.109375 33.40625 6.109375 
Q 40.53125 6.109375 44.609375 11.75 
Q 48.6875 17.390625 48.6875 27.296875 
z
" id="DejaVuSans-112"/>
     <path d="M 19.671875 34.8125 
L 19.671875 8.109375 
L 35.5 8.109375 
Q 43.453125 8.109375 47.28125 11.40625 
Q 51.125 14.703125 51.125 21.484375 
Q 51.125 28.328125 47.28125 31.5625 
Q 43.453125 34.8125 35.5 34.8125 
z
M 19.671875 64.796875 
L 19.671875 42.828125 
L 34.28125 42.828125 
Q 41.5 42.828125 45.03125 45.53125 
Q 48.578125 48.25 48.578125 53.8125 
Q 48.578125 59.328125 45.03125 62.0625 
Q 41.5 64.796875 34.28125 64.796875 
z
M 9.8125 72.90625 
L 35.015625 72.90625 
Q 46.296875 72.90625 52.390625 68.21875 
Q 58.5 63.53125 58.5 54.890625 
Q 58.5 48.1875 55.375 44.234375 
Q 52.25 40.28125 46.1875 39.3125 
Q 53.46875 37.75 57.5 32.78125 
Q 61.53125 27.828125 61.53125 20.40625 
Q 61.53125 10.640625 54.890625 5.3125 
Q 48.25 0 35.984375 0 
L 9.8125 0 
z
" id="DejaVuSans-66"/>
    </defs>
    <g transform="translate(1033.606101 46.656)scale(0.252 -0.252)">
     <use xlink:href="#DejaVuSans-71"/>
     <use x="77.490234" xlink:href="#DejaVuSans-80"/>
     <use x="137.792969" xlink:href="#DejaVuSans-85"/>
     <use x="210.986328" xlink:href="#DejaVuSans-32"/>
     <use x="242.773438" xlink:href="#DejaVuSans-67"/>
     <use x="312.597656" xlink:href="#DejaVuSans-111"/>
     <use x="373.779297" xlink:href="#DejaVuSans-110"/>
     <use x="437.158203" xlink:href="#DejaVuSans-115"/>
     <use x="489.257812" xlink:href="#DejaVuSans-117"/>
     <use x="552.636719" xlink:href="#DejaVuSans-109"/>
     <use x="650.048828" xlink:href="#DejaVuSans-112"/>
     <use x="713.525391" xlink:href="#DejaVuSans-116"/>
     <use x="752.734375" xlink:href="#DejaVuSans-105"/>
     <use x="780.517578" xlink:href="#DejaVuSans-111"/>
     <use x="841.699219" xlink:href="#DejaVuSans-110"/>
     <use x="905.078125" xlink:href="#DejaVuSans-32"/>
     <use x="936.865234" xlink:href="#DejaVuSans-40"/>
     <use x="975.878906" xlink:href="#DejaVuSans-77"/>
     <use x="1062.158203" xlink:href="#DejaVuSans-66"/>
     <use x="1130.761719" xlink:href="#DejaVuSans-41"/>
    </g>
   </g>
  </g>
 </g>
 <defs>
  <clipPath id="p895b1fdedc">
   <rect height="231.750801" width="463.578797" x="121.523122" y="52.656"/>
  </clipPath>
  <clipPath id="p74ad8c0452">
   <rect height="231.750801" width="463.578797" x="949.205203" y="52.656"/>
  </clipPath>
 </defs>
</svg>
